<svg xmlns="http://www.w3.org/2000/svg" viewBox="-64 -64 640 640">
  <defs>
    <linearGradient id="wood" x1="0" y1="0" x2="1" y2="1">
      <stop offset="0" stop-color="#b66a32"/>
      <stop offset="0.42" stop-color="#7d3519"/>
      <stop offset="0.68" stop-color="#c27a39"/>
      <stop offset="1" stop-color="#54200f"/>
    </linearGradient>
    <linearGradient id="woodDark" x1="0" y1="0" x2="0" y2="1">
      <stop offset="0" stop-color="#6b2a14"/>
      <stop offset="1" stop-color="#351208"/>
    </linearGradient>
    <linearGradient id="metal" x1="0" y1="0" x2="0" y2="1">
      <stop offset="0" stop-color="#fff1a8"/>
      <stop offset="0.48" stop-color="#c79a35"/>
      <stop offset="1" stop-color="#75521b"/>
    </linearGradient>
    <radialGradient id="hubShine" cx="35%" cy="28%" r="70%">
      <stop offset="0" stop-color="#fff9cf"/>
      <stop offset="0.35" stop-color="#d9b950"/>
      <stop offset="1" stop-color="#6c4a16"/>
    </radialGradient>
  </defs>

  <g fill="url(#wood)" stroke="url(#woodDark)" stroke-width="4" stroke-linejoin="round">
    <g transform="translate(256 256)">
      <g id="spoke">
        <path d="M-10 -32 C-14 -90 -14 -162 -9 -220 C-6 -252 -2 -272 0 -282 C2 -272 6 -252 9 -220 C14 -162 14 -90 10 -32 Z"/>
        <ellipse cx="0" cy="-292" rx="18" ry="38"/>
      </g>
      <use href="#spoke" transform="rotate(45)"/>
      <use href="#spoke" transform="rotate(90)"/>
      <use href="#spoke" transform="rotate(135)"/>
      <use href="#spoke" transform="rotate(180)"/>
      <use href="#spoke" transform="rotate(225)"/>
      <use href="#spoke" transform="rotate(270)"/>
      <use href="#spoke" transform="rotate(315)"/>
    </g>
  </g>

  <circle cx="256" cy="256" r="194" fill="none" stroke="url(#woodDark)" stroke-width="54"/>
  <circle cx="256" cy="256" r="194" fill="none" stroke="url(#wood)" stroke-width="38"/>
  <circle cx="256" cy="256" r="174" fill="none" stroke="#ffffff" stroke-opacity="0.18" stroke-width="5"/>
  <circle cx="256" cy="256" r="215" fill="none" stroke="#2c0f07" stroke-opacity="0.38" stroke-width="6"/>

  <g stroke="url(#woodDark)" stroke-width="14" stroke-linecap="round">
    <line x1="256" y1="256" x2="256" y2="83"/>
    <line x1="256" y1="256" x2="378" y2="134"/>
    <line x1="256" y1="256" x2="429" y2="256"/>
    <line x1="256" y1="256" x2="378" y2="378"/>
    <line x1="256" y1="256" x2="256" y2="429"/>
    <line x1="256" y1="256" x2="134" y2="378"/>
    <line x1="256" y1="256" x2="83" y2="256"/>
    <line x1="256" y1="256" x2="134" y2="134"/>
  </g>
  <g stroke="url(#wood)" stroke-width="9" stroke-linecap="round">
    <line x1="256" y1="256" x2="256" y2="83"/>
    <line x1="256" y1="256" x2="378" y2="134"/>
    <line x1="256" y1="256" x2="429" y2="256"/>
    <line x1="256" y1="256" x2="378" y2="378"/>
    <line x1="256" y1="256" x2="256" y2="429"/>
    <line x1="256" y1="256" x2="134" y2="378"/>
    <line x1="256" y1="256" x2="83" y2="256"/>
    <line x1="256" y1="256" x2="134" y2="134"/>
  </g>

  <g fill="none" stroke="#ffdca0" stroke-opacity="0.22" stroke-width="3" stroke-linecap="round">
    <path d="M98 167 C154 109 242 82 322 101"/>
    <path d="M112 342 C184 400 294 413 383 342"/>
    <path d="M186 253 C223 226 289 224 329 253"/>
  </g>

  <circle cx="256" cy="256" r="56" fill="url(#hubShine)" stroke="#5f4519" stroke-width="5"/>
  <circle cx="256" cy="256" r="37" fill="none" stroke="#ffffff" stroke-opacity="0.55" stroke-width="4"/>
  <circle cx="256" cy="256" r="17" fill="url(#metal)" stroke="#5f4519" stroke-width="3"/>
</svg>
